<?xml version="1.0" encoding="utf-8"?>
<!-- Generator: Adobe Illustrator 27.0.0, SVG Export Plug-In . SVG Version: 6.00 Build 0)  -->
<svg version="1.1" id="Layer_1" xmlns="http://www.w3.org/2000/svg" xmlns:xlink="http://www.w3.org/1999/xlink" x="0px" y="0px"
	 viewBox="0 0 512 512" style="enable-background:new 0 0 512 512;" xml:space="preserve">
<g>
	<path d="M352.5,22.8l18.8,101.8l2.5,13.6l13.6,2.5l101.8,18.7l-58.8,85.3l-7.8,11.4l7.8,11.4l58.8,85.2l-101.8,18.8l-13.5,2.5
		l-2.5,13.5l-18.8,101.8l-85.2-58.8l-11.4-7.8l-11.4,7.8l-85.2,58.8l-18.8-101.8l-2.5-13.5l-13.5-2.5L22.8,352.5l58.8-85.2l7.8-11.4
		l-7.8-11.4l-58.8-85.2l101.8-18.8l13.5-2.5l2.5-13.5l18.8-101.8l85.2,58.8l11.4,7.8l11.4-7.8L352.5,22.8 M256,404
		c39.5,0,76.7-15.4,104.7-43.3S404,295.5,404,256s-15.4-76.7-43.3-104.7S295.5,108,256,108s-76.7,15.4-104.7,43.3S108,216.5,108,256
		s15.4,76.7,43.3,104.7S216.5,404,256,404 M355.4,0c-3.2,0-6.3,1-9.1,2.8L256,65.1L165.7,2.8C163,0.9,159.8,0,156.6,0
		c-2.1,0-4.2,0.4-6.1,1.2c-5,2.1-8.6,6.6-9.6,11.9L121,121L13.1,140.9c-5.3,1-9.8,4.6-11.9,9.6s-1.5,10.7,1.6,15.2L65.1,256
		L2.8,346.3c-3.1,4.5-3.7,10.2-1.6,15.2s6.6,8.6,11.9,9.6L121,391l19.9,107.9c1,5.3,4.6,9.8,9.6,11.9c2,0.8,4.1,1.2,6.1,1.2
		c3.2,0,6.3-1,9.1-2.8l90.3-62.3l90.3,62.3c2.7,1.9,5.9,2.8,9.1,2.8c2.1,0,4.2-0.4,6.1-1.2c5-2.1,8.6-6.6,9.6-11.9L391,391
		l107.9-19.9c5.3-1,9.8-4.6,11.9-9.6c2.1-5,1.5-10.7-1.6-15.2L446.9,256l62.3-90.4c3.1-4.5,3.7-10.2,1.6-15.2
		c-2.1-5-6.6-8.6-11.9-9.6L391,121L371.1,13.1c-1-5.3-4.6-9.8-9.6-11.9C359.5,0.4,357.4,0,355.4,0L355.4,0z M256,384
		c-70.7,0-128-57.3-128-128s57.3-128,128-128s128,57.3,128,128S326.7,384,256,384L256,384z"/>
</g>
</svg>
